PathFileType	4	(X/Y/Z)	Patient4_TMGait_0pt4_03_right_43.trc.trc
DataRate	CameraRate	NumFrames	NumMarkers	Units	OrigDataRate	OrigDataStartFrame	OrigNumFrames
75.268817204301	75.268817204301	4	33	mm	75.268817204301	1	       141
Frame#	Time	Sacral			L.Shoulder			Chest			R.Shoulder			Neck			R.ASIS			L.ASIS			R.Thigh.Superior			R.Thigh.Lateral			R.Thigh.Inferior			R.Patella			L.Thigh.Superior			L.Thigh.Lateral			L.Thigh.Inferior			L.Patella			L.Shank.Superior			L.Shank.Lateral			L.Shank.Inferior			R.Shank.Superior			R.Shank.Lateral			R.Shank.Inferior			R.Heel			R.Midfoot.Superior			R.Midfoot.Lateral			R.Toe			L.Heel			L.Midfoot.Lateral			L.Midfoot.Superior			L.Toe			L.Elbow			L.Wrist			R.Elbow			R.Wrist			
		X1	Y1	Z1	X2	Y2	Z2	X3	Y3	Z3	X4	Y4	Z4	X5	Y5	Z5	X6	Y6	Z6	X7	Y7	Z7	X8	Y8	Z8	X9	Y9	Z9	X10	Y10	Z10	X11	Y11	Z11	X12	Y12	Z12	X13	Y13	Z13	X14	Y14	Z14	X15	Y15	Z15	X16	Y16	Z16	X17	Y17	Z17	X18	Y18	Z18	X19	Y19	Z19	X20	Y20	Z20	X21	Y21	Z21	X22	Y22	Z22	X23	Y23	Z23	X24	Y24	Z24	X25	Y25	Z25	X26	Y26	Z26	X27	Y27	Z27	X28	Y28	Z28	X29	Y29	Z29	X30	Y30	Z30	X31	Y31	Z31	X32	Y32	Z32	X33	Y33	Z33	

1	56.340000000000	953.933030711980	1002.709055698603	424.565652596249	1117.783411999917	1434.173009681953	225.934765611501	1224.276737459915	1372.886450479888	387.371544765240	1141.266664402613	1444.931638997622	562.182312577680	1099.762226046995	1499.180743994178	381.871581882350	1189.902798958786	953.930753119617	537.041213161363	1168.515796172239	968.048165402931	261.559747669559	1279.727099999810	786.998662354132	510.869589703129	1247.954998702609	667.551383445179	592.704557000775	1338.911438298729	630.962235431066	514.144524793409	1363.974513955002	520.246057112891	540.961794373279	1221.020480615636	753.945947749267	290.589371690035	1131.632177375910	636.397118547916	235.159295395115	1218.569105956137	560.638741948663	295.938858379131	1219.149936809938	491.661364098112	307.048355329921	1192.999191404054	418.766427892054	300.558722505347	1103.163801706088	303.239837355892	252.431663512423	1154.565819130070	193.006231827707	324.794034837459	1291.511878905488	442.008523736371	552.916620550450	1173.396703981547	400.884032648895	620.022005279072	1160.557654925700	289.335486944635	575.527949499513	963.564332817925	231.412163645641	557.523467620950	1127.565099876007	157.583046196603	589.950351100781	1019.644148590851	164.704103613517	627.645374564522	1185.271058513895	40.216891740422	611.973274759981	1028.327839112961	38.757131782784	372.973684575685	1099.086626043566	35.389162101242	289.294357686461	1182.943202485015	96.769514285746	314.181411548753	1310.707585033604	45.662705358221	280.488465647062	1139.944648554646	1082.486065898846	105.060223399085	1304.542972473961	878.287984997940	81.606932461310	1129.220375947600	1094.523102405309	681.645473493134	1261.101587833915	868.267695288596	665.175651170832	
2	56.353285714286	953.057629269283	1003.387083884103	423.077409760326	1119.264034634429	1434.958745967176	225.565861395762	1224.270338915012	1373.189166454105	387.777548432246	1139.774500910627	1445.071216627488	561.972658384555	1099.973634408952	1499.673411825904	381.605481837210	1188.082861511540	954.414813250582	536.418654100599	1167.436742524714	967.694903267088	261.461753747078	1278.771933404148	788.596518181494	509.909199866454	1248.440343357216	669.265794394768	592.437769025264	1338.535136072727	632.604734985136	512.968339804870	1365.193244816484	523.349094969088	540.218702017247	1218.753906511302	753.399698611501	290.620862759547	1128.217319514499	636.593106601710	234.579267908370	1214.267222048071	560.078322532106	295.407242685781	1214.137660526706	491.204006197240	306.508196092172	1187.933346565105	418.581092382972	299.994446879230	1097.725495815056	303.226863704046	251.868629626582	1148.962301558588	192.914732970286	324.424128055778	1295.446450229191	443.365654570914	552.656008535015	1179.610000387363	397.400827879941	619.974081479048	1171.567462552011	285.504338481944	575.719201166038	977.466106043194	218.388980282673	558.428112614760	1144.604679166225	153.431756383814	590.499257769925	1037.003105007051	155.178049779872	628.619504133646	1208.020183087586	39.429621818209	612.665289100399	1022.641769967665	38.780139599650	372.929880034876	1093.415684357118	35.351277585112	289.251253607664	1177.303216852648	96.719113461491	314.060978520478	1305.071121130506	45.590295093282	280.451968213796	1143.337937774820	1084.041594061651	103.249877469462	1315.835819057167	887.298931967619	79.371468126343	1119.091061846962	1095.621355786769	681.304434028978	1236.428274335180	862.807039750891	668.810842080690	
3	56.366571428571	952.172968952533	1004.054154525700	421.617493187717	1120.767835417283	1435.690708545097	225.224380918155	1224.292422550823	1373.442750557793	388.205644454568	1138.345297304731	1445.192276480152	561.782589289685	1100.222088586157	1500.133995233377	381.356171729738	1186.297254114833	954.859834707063	535.855589218000	1166.432538221125	967.377436071416	261.357879705755	1277.752681283744	790.056248875353	509.020504706848	1248.703311548809	670.809811078723	592.190407289895	1337.956248523542	634.045666816391	511.888258157062	1366.117351613879	526.295024115959	539.520057613714	1216.480672763113	752.847773554412	290.644848126448	1124.817896400360	636.781817136953	234.008131568249	1209.985942859172	559.519363610268	294.887357850062	1209.155214103623	490.752256174969	305.975254112612	1182.894066389798	418.394405039128	299.440266069688	1092.321551813393	303.211582542326	251.317119800207	1143.397091542865	192.823346383146	324.061392245286	1299.185341331361	444.581350324094	552.411423615605	1185.832667645218	393.698990322341	620.036514048741	1182.647042721544	281.524804297469	575.958066372936	991.644022638922	205.101920519008	559.513452810121	1161.853133768921	149.197067513909	591.081109102185	1054.682208436637	145.485455312814	629.693758177089	1231.025077839630	38.691103304962	613.276620119590	1016.994451916449	38.800771283731	372.885767161065	1087.779405093023	35.313721562169	289.207285880122	1171.697260990030	96.667443131218	313.943967104303	1299.467871773823	45.516642847088	280.417014771986	1146.642061238321	1085.522109117876	101.503309477129	1326.928048972048	896.281772043159	77.193462192813	1108.991110296396	1096.759388972644	680.992489087348	1212.039096609165	857.690920654321	672.374777661702	
4	56.379857142857	951.281381527447	1004.699408545125	420.223097976490	1122.312265016901	1436.319368715584	224.947976564110	1224.372542761236	1373.602644060046	388.683918032358	1137.048101940712	1445.278892071239	561.641983587871	1100.543342860460	1500.532279145461	381.151831849999	1184.575410826435	955.224120780459	535.411308821658	1165.572515050652	967.123983559316	261.255702037860	1276.570942065070	791.211818332257	508.289819037633	1248.491484606903	672.019487038096	592.003949896104	1336.941695309639	635.082393280174	511.000070875233	1366.433466552538	528.921023732170	538.907332505298	1214.205229594318	752.285470255644	290.667642064925	1121.457836032869	636.957015552018	233.465431514614	1205.750379915347	558.963712982092	294.402733675438	1204.234541031397	490.310058713493	305.469506434580	1177.912854605834	418.206130179784	298.914429230172	1086.989749518343	303.193539589350	250.794220145509	1137.909155783829	192.732191408115	323.717267935408	1302.503643387726	445.551358922678	552.207303699711	1192.019599411678	389.645330045457	620.284957959357	1193.807314026950	277.361925927042	576.271584350704	1006.361424590686	191.461623056006	560.856186571027	1179.438097353410	144.940758599867	591.714705506404	1072.925077932095	135.625206449855	630.899635758891	1254.400022923190	38.199596550389	613.748234872710	1011.423007379755	38.817052879000	372.841717675187	1082.212397648767	35.277001710560	289.162460121015	1166.159282298971	96.613907488222	313.834107579953	1293.931235987642	45.440862482420	280.385042308347	1149.767690125544	1086.855798604197	99.897383573829	1337.586558221131	905.175758017191	75.141562221221	1098.997017460594	1097.988151721738	680.745092276318	1188.290025895928	853.246785339222	675.784390793870	
